<?xml version="1.0" encoding="UTF-8" standalone="no"?>
<!-- Created with Inkscape (http://www.inkscape.org/) -->

<svg
   xmlns:dc="http://purl.org/dc/elements/1.1/"
   xmlns:cc="http://creativecommons.org/ns#"
   xmlns:rdf="http://www.w3.org/1999/02/22-rdf-syntax-ns#"
   xmlns:svg="http://www.w3.org/2000/svg"
   xmlns="http://www.w3.org/2000/svg"
   xmlns:sodipodi="http://sodipodi.sourceforge.net/DTD/sodipodi-0.dtd"
   xmlns:inkscape="http://www.inkscape.org/namespaces/inkscape"
   width="297mm"
   height="210mm"
   viewBox="0 0 297 210"
   version="1.1"
   id="svg1395"
   inkscape:version="0.92.2 (5c3e80d, 2017-08-06)"
   sodipodi:docname="lupa.svg">
  <defs
     id="defs1389">
    <inkscape:path-effect
       effect="spiro"
       id="path-effect2160"
       is_visible="true" />
    <inkscape:path-effect
       effect="spiro"
       id="path-effect1998"
       is_visible="true" />
    <inkscape:path-effect
       effect="spiro"
       id="path-effect1994"
       is_visible="true" />
    <inkscape:path-effect
       effect="spiro"
       id="path-effect1990"
       is_visible="true" />
    <inkscape:path-effect
       effect="spiro"
       id="path-effect1986"
       is_visible="true" />
    <inkscape:path-effect
       effect="spiro"
       id="path-effect1982"
       is_visible="true" />
    <inkscape:path-effect
       effect="spiro"
       id="path-effect1978"
       is_visible="true" />
    <inkscape:path-effect
       effect="spiro"
       id="path-effect1970"
       is_visible="true" />
    <inkscape:path-effect
       effect="spiro"
       id="path-effect1966"
       is_visible="true" />
    <inkscape:path-effect
       effect="spiro"
       id="path-effect1962"
       is_visible="true" />
    <inkscape:path-effect
       effect="spiro"
       id="path-effect1958"
       is_visible="true" />
    <inkscape:path-effect
       effect="spiro"
       id="path-effect1954"
       is_visible="true" />
    <inkscape:path-effect
       effect="spiro"
       id="path-effect1950"
       is_visible="true" />
    <inkscape:path-effect
       effect="spiro"
       id="path-effect1998-6"
       is_visible="true" />
    <inkscape:path-effect
       effect="spiro"
       id="path-effect1994-3"
       is_visible="true" />
    <inkscape:path-effect
       effect="spiro"
       id="path-effect1990-5"
       is_visible="true" />
    <inkscape:path-effect
       effect="spiro"
       id="path-effect1986-6"
       is_visible="true" />
    <inkscape:path-effect
       effect="spiro"
       id="path-effect1982-3"
       is_visible="true" />
    <inkscape:path-effect
       effect="spiro"
       id="path-effect1978-7"
       is_visible="true" />
    <inkscape:path-effect
       effect="spiro"
       id="path-effect1970-8"
       is_visible="true" />
    <inkscape:path-effect
       effect="spiro"
       id="path-effect1966-8"
       is_visible="true" />
    <inkscape:path-effect
       effect="spiro"
       id="path-effect1962-3"
       is_visible="true" />
    <inkscape:path-effect
       effect="spiro"
       id="path-effect1958-8"
       is_visible="true" />
    <inkscape:path-effect
       effect="spiro"
       id="path-effect1954-2"
       is_visible="true" />
    <inkscape:path-effect
       effect="spiro"
       id="path-effect1950-9"
       is_visible="true" />
    <filter
       inkscape:collect="always"
       style="color-interpolation-filters:sRGB"
       id="filter2306"
       x="-0.039134027"
       width="1.0782681"
       y="-0.051303532"
       height="1.1026071">
      <feGaussianBlur
         inkscape:collect="always"
         stdDeviation="3.4894989"
         id="feGaussianBlur2308" />
    </filter>
  </defs>
  <sodipodi:namedview
     id="base"
     pagecolor="#ffffff"
     bordercolor="#666666"
     borderopacity="1.0"
     inkscape:pageopacity="0.0"
     inkscape:pageshadow="2"
     inkscape:zoom="0.46669048"
     inkscape:cx="690.46459"
     inkscape:cy="383.77787"
     inkscape:document-units="mm"
     inkscape:current-layer="layer1"
     showgrid="false"
     inkscape:window-width="1366"
     inkscape:window-height="705"
     inkscape:window-x="-8"
     inkscape:window-y="-8"
     inkscape:window-maximized="1" />
  <metadata
     id="metadata1392">
    <rdf:RDF>
      <cc:Work
         rdf:about="">
        <dc:format>image/svg+xml</dc:format>
        <dc:type
           rdf:resource="http://purl.org/dc/dcmitype/StillImage" />
        <dc:title></dc:title>
      </cc:Work>
    </rdf:RDF>
  </metadata>
  <g
     inkscape:label="Capa 1"
     inkscape:groupmode="layer"
     id="layer1"
     transform="translate(0,-87)">
    <rect
       style="opacity:1;fill:#e5ff80;fill-opacity:1;fill-rule:nonzero;stroke:none;stroke-width:9;stroke-linecap:butt;stroke-linejoin:miter;stroke-miterlimit:4;stroke-dasharray:none;stroke-dashoffset:0;stroke-opacity:1;paint-order:stroke fill markers"
       id="rect2201"
       width="300.47574"
       height="212.03383"
       x="-0.56693536"
       y="86.666992" />
    <path
       style="opacity:1;fill:#28220b;fill-opacity:1;fill-rule:nonzero;stroke:none;stroke-width:9;stroke-linecap:butt;stroke-linejoin:miter;stroke-miterlimit:4;stroke-dasharray:none;stroke-dashoffset:0;stroke-opacity:1;paint-order:stroke fill markers;filter:url(#filter2306)"
       d="m 101.6934,112.93737 a 62.079422,60.378612 0 0 0 -62.079407,60.37874 62.079422,60.378612 0 0 0 62.079407,60.37823 62.079422,60.378612 0 0 0 46.77802,-20.79821 c 32.31819,30.81729 64.6366,44.30846 96.95481,63.28141 4.46699,-0.75369 11.01299,1.26501 6.87451,-10.96264 -28.22749,-22.12819 -51.62179,-45.46462 -95.81946,-63.60025 a 62.079422,60.378612 0 0 0 7.29155,-28.29854 62.079422,60.378612 0 0 0 -62.07943,-60.37874 z m 0.28372,13.03952 a 48.189506,46.488696 0 0 1 48.1893,46.48863 48.189506,46.488696 0 0 1 -48.1893,46.48864 48.189506,46.488696 0 0 1 -0.54417,-0.0264 c 0.90829,-0.0287 3.20595,-0.23022 5.60845,-0.49764 16.89886,-1.88101 31.0783,-11.60189 38.24108,-26.21701 3.51065,-7.1632 4.27931,-10.75038 4.27931,-19.97759 0,-6.73665 -0.20116,-8.58052 -1.3286,-12.18944 -6.01096,-19.241 -21.97365,-31.7911 -42.94775,-33.76641 -5.303547,-0.49947 -12.878327,0.54225 -19.220537,2.64325 -22.29639,7.38618 -35.76566,30.10239 -31.1366,52.51307 4.06725,19.69084 20.76917,34.55611 41.55353,36.98379 1.88195,0.21982 3.628017,0.41183 4.303097,0.47646 A 48.189506,46.488696 0 0 1 53.787283,172.46548 48.189506,46.488696 0 0 1 101.97712,125.97685 Z"
       id="path2185-1"
       inkscape:connector-curvature="0" />
    <path
       style="opacity:1;fill:#a05a2c;fill-opacity:1;fill-rule:nonzero;stroke:none;stroke-width:9;stroke-linecap:butt;stroke-linejoin:miter;stroke-miterlimit:4;stroke-dasharray:none;stroke-dashoffset:0;stroke-opacity:1;paint-order:stroke fill markers"
       d="m 108.56794,101.97433 a 62.079422,60.378612 0 0 0 -62.079416,60.37874 62.079422,60.378612 0 0 0 62.079416,60.37822 62.079422,60.378612 0 0 0 62.07941,-60.37822 62.079422,60.378612 0 0 0 -62.07941,-60.37874 z m 0.2837,13.03951 a 48.189506,46.488696 0 0 1 48.18931,46.48864 48.189506,46.488696 0 0 1 -48.18931,46.48863 48.189506,46.488696 0 0 1 -48.189821,-46.48863 48.189506,46.488696 0 0 1 48.189821,-46.48864 z"
       id="path2185"
       inkscape:connector-curvature="0" />
    <path
       transform="matrix(0.53126587,-0.84720515,0.83572947,0.54914138,0,0)"
       style="opacity:1;fill:#a05a2c;fill-opacity:1;fill-rule:nonzero;stroke:none;stroke-width:9.00101662;stroke-linecap:butt;stroke-linejoin:miter;stroke-miterlimit:4;stroke-dasharray:none;stroke-dashoffset:0;stroke-opacity:1;paint-order:stroke fill markers"
       d="m -83.117882,237.04111 12.940054,0 c 9.906734,48.56552 3.049767,81.33337 0,117.68903 -7.948191,10.00454 -9.856469,3.38481 -12.940054,0 -1.918786,-38.00992 -8.554108,-73.02158 0,-117.68903 z"
       id="rect2193"
       inkscape:connector-curvature="0"
       sodipodi:nodetypes="ccccc" />
    <path
       style="opacity:1;fill:#87cdde;fill-opacity:1;fill-rule:nonzero;stroke:none;stroke-width:34.01574707;stroke-linecap:butt;stroke-linejoin:miter;stroke-miterlimit:4;stroke-dasharray:none;stroke-dashoffset:0;stroke-opacity:1;paint-order:stroke fill markers"
       d="m 390.63794,455.27027 c -78.55508,-9.17548 -141.67966,-65.35784 -157.05197,-139.77992 -17.49563,-84.70178 33.41184,-170.55982 117.68164,-198.4761 23.97054,-7.94078 52.59957,-11.87783 72.64445,-9.99004 79.27226,7.46573 139.60413,54.90004 162.32279,127.62193 4.26119,13.64002 5.02052,20.60772 5.02052,46.06908 0,34.87448 -2.90394,48.43238 -16.1725,75.50591 -27.07184,55.23824 -80.66382,91.97972 -144.53359,99.08904 -10.6066,1.18063 -20.73108,2.02777 -22.49885,1.88255 -1.76777,-0.14528 -9.60339,-1.01032 -17.41249,-1.92245 z"
       id="path2195"
       inkscape:connector-curvature="0"
       transform="matrix(0.26458333,0,0,0.26458333,0,87)" />
    <path
       transform="rotate(24.303572)"
       style="opacity:1;fill:#d7eef4;fill-opacity:1;fill-rule:nonzero;stroke:none;stroke-width:9;stroke-linecap:butt;stroke-linejoin:miter;stroke-miterlimit:4;stroke-dasharray:none;stroke-dashoffset:0;stroke-opacity:1;paint-order:stroke fill markers"
       d="m 193.32065,74.055069 c 0,5.009756 -13.97204,-3.462934 -28.06198,-3.462934 -14.08994,0 -22.9622,8.47269 -22.9622,3.462934 0,-5.009756 11.85558,-13.621148 25.94552,-13.621148 14.08994,0 25.07866,8.611392 25.07866,13.621148 z"
       id="path2198"
       inkscape:connector-curvature="0"
       sodipodi:nodetypes="sssss" />
  </g>
</svg>
