<?xml version="1.0" encoding="UTF-8" standalone="no"?>
<!-- Created with Inkscape (http://www.inkscape.org/) -->

<svg
   xmlns:dc="http://purl.org/dc/elements/1.1/"
   xmlns:cc="http://creativecommons.org/ns#"
   xmlns:rdf="http://www.w3.org/1999/02/22-rdf-syntax-ns#"
   xmlns:svg="http://www.w3.org/2000/svg"
   xmlns="http://www.w3.org/2000/svg"
   xmlns:xlink="http://www.w3.org/1999/xlink"
   xmlns:sodipodi="http://sodipodi.sourceforge.net/DTD/sodipodi-0.dtd"
   xmlns:inkscape="http://www.inkscape.org/namespaces/inkscape"
   width="297mm"
   height="210mm"
   viewBox="0 0 297 210"
   version="1.1"
   id="svg8"
   inkscape:version="0.92.2 (5c3e80d, 2017-08-06)"
   sodipodi:docname="sandia.svg">
  <defs
     id="defs2">
    <linearGradient
       inkscape:collect="always"
       id="linearGradient1253">
      <stop
         style="stop-color:#000000;stop-opacity:1;"
         offset="0"
         id="stop1249" />
      <stop
         style="stop-color:#000000;stop-opacity:0;"
         offset="1"
         id="stop1251" />
    </linearGradient>
    <inkscape:path-effect
       effect="spiro"
       id="path-effect1241"
       is_visible="true" />
    <inkscape:path-effect
       effect="spiro"
       id="path-effect1159"
       is_visible="true" />
    <inkscape:path-effect
       effect="spiro"
       id="path-effect1119"
       is_visible="true" />
    <inkscape:path-effect
       effect="spiro"
       id="path-effect1115"
       is_visible="true" />
    <inkscape:path-effect
       effect="spiro"
       id="path-effect1111"
       is_visible="true" />
    <inkscape:path-effect
       effect="spiro"
       id="path-effect1107"
       is_visible="true" />
    <inkscape:path-effect
       effect="spiro"
       id="path-effect1103"
       is_visible="true" />
    <inkscape:path-effect
       effect="spiro"
       id="path-effect1091"
       is_visible="true" />
    <inkscape:path-effect
       effect="spiro"
       id="path-effect1087"
       is_visible="true" />
    <inkscape:path-effect
       effect="spiro"
       id="path-effect1083"
       is_visible="true" />
    <inkscape:path-effect
       effect="spiro"
       id="path-effect1079"
       is_visible="true" />
    <inkscape:path-effect
       effect="spiro"
       id="path-effect828"
       is_visible="true" />
    <linearGradient
       inkscape:collect="always"
       xlink:href="#linearGradient1253"
       id="linearGradient1255"
       x1="123.62432"
       y1="234.08734"
       x2="298.34051"
       y2="234.08734"
       gradientUnits="userSpaceOnUse"
       gradientTransform="matrix(1.7023501,0,0,1,-209.53947,0)" />
  </defs>
  <sodipodi:namedview
     id="base"
     pagecolor="#ffffff"
     bordercolor="#666666"
     borderopacity="1.0"
     inkscape:pageopacity="0.0"
     inkscape:pageshadow="2"
     inkscape:zoom="0.58"
     inkscape:cx="550.9851"
     inkscape:cy="359.61841"
     inkscape:document-units="mm"
     inkscape:current-layer="layer1"
     showgrid="false"
     showguides="true"
     inkscape:window-width="1366"
     inkscape:window-height="705"
     inkscape:window-x="-8"
     inkscape:window-y="-8"
     inkscape:window-maximized="1" />
  <metadata
     id="metadata5">
    <rdf:RDF>
      <cc:Work
         rdf:about="">
        <dc:format>image/svg+xml</dc:format>
        <dc:type
           rdf:resource="http://purl.org/dc/dcmitype/StillImage" />
        <dc:title></dc:title>
      </cc:Work>
    </rdf:RDF>
  </metadata>
  <g
     inkscape:label="Capa 1"
     inkscape:groupmode="layer"
     id="layer1"
     transform="translate(0,-87)">
    <rect
       style="opacity:1;fill:#aade87;fill-opacity:1;fill-rule:nonzero;stroke:none;stroke-width:2;stroke-linecap:butt;stroke-linejoin:miter;stroke-miterlimit:4;stroke-dasharray:none;stroke-dashoffset:0;stroke-opacity:1;paint-order:stroke fill markers"
       id="rect1245"
       width="298.30167"
       height="214.30228"
       x="0"
       y="84.680717" />
    <path
       style="fill:url(#linearGradient1255);fill-opacity:1;stroke:none;stroke-width:0.26458332px;stroke-linecap:butt;stroke-linejoin:miter;stroke-opacity:1"
       d="m 204.94461,172.84111 c 131.42475,-10.23505 97.33725,20.55431 93.39592,43.87154 l -0.0661,82.27035 C 69.046071,265.16468 60.511602,222.66738 41.564647,180.57957 Z"
       id="path1247"
       inkscape:connector-curvature="0"
       sodipodi:nodetypes="ccccc" />
    <path
       style="opacity:1;fill:#005500;fill-opacity:1;fill-rule:nonzero;stroke:none;stroke-width:2;stroke-linecap:butt;stroke-linejoin:miter;stroke-miterlimit:4;stroke-dasharray:none;stroke-dashoffset:0;stroke-opacity:1;paint-order:stroke fill markers"
       d="m 243.47758,169.19168 a 110.93613,104.81981 0 0 1 -103.61629,67.72176 110.93613,104.81981 0 0 1 -98.296643,-56.33387 104.88853,109.5045 0 0 0 99.430333,75.07249 104.88853,109.5045 0 0 0 102.4826,-86.46038 z"
       id="path1141"
       inkscape:connector-curvature="0" />
    <path
       style="opacity:1;fill:#ff2a2a;fill-opacity:1;fill-rule:nonzero;stroke:none;stroke-width:2;stroke-linecap:butt;stroke-linejoin:miter;stroke-miterlimit:4;stroke-dasharray:none;stroke-dashoffset:0;stroke-opacity:1;paint-order:stroke fill markers"
       d="m 128.1834,236.69204 c -0.72761,-0.106 -3.44903,-0.48834 -6.04763,-0.84954 -10.71856,-1.48988 -23.574578,-5.62136 -34.089428,-10.95517 -14.551843,-7.38161 -26.284643,-16.84663 -36.214222,-29.21451 -3.366514,-4.19319 -9.726132,-13.89264 -9.421317,-14.36903 0.207052,-0.3236 199.008677,-11.70504 200.001937,-11.45016 0.53878,0.13826 0.19575,1.16949 -1.76521,5.3067 -15.6724,33.06548 -47.55626,55.79677 -85.62778,61.04751 -5.51483,0.7606 -22.79986,1.07246 -26.83635,0.4842 z"
       id="path1161"
       inkscape:connector-curvature="0" />
    <path
       inkscape:connector-curvature="0"
       style="opacity:1;fill:#000000;fill-opacity:1;fill-rule:nonzero;stroke:none;stroke-width:2;stroke-linecap:butt;stroke-linejoin:miter;stroke-miterlimit:4;stroke-dasharray:none;stroke-dashoffset:0;stroke-opacity:1;paint-order:stroke fill markers"
       d="m 114.80593,181.68288 -2.41842,8.69855 a 2.9869111,3.3182974 0 0 0 -0.0549,0.1981 l -0.0698,0.2512 0.0149,3.8e-4 a 2.9869111,3.3182974 0 0 0 -0.0552,0.62744 2.9869111,3.3182974 0 0 0 2.98692,3.31831 2.9869111,3.3182974 0 0 0 2.98692,-3.31831 2.9869111,3.3182974 0 0 0 -0.0407,-0.53893 l 0.0407,7.2e-4 -0.0851,-0.23161 a 2.9869111,3.3182974 0 0 0 -0.34375,-0.93666 z"
       id="path1163" />
    <path
       inkscape:connector-curvature="0"
       style="opacity:1;fill:#000000;fill-opacity:1;fill-rule:nonzero;stroke:none;stroke-width:2;stroke-linecap:butt;stroke-linejoin:miter;stroke-miterlimit:4;stroke-dasharray:none;stroke-dashoffset:0;stroke-opacity:1;paint-order:stroke fill markers"
       d="m 130.96741,179.94256 -2.55933,9.16101 a 3.1609427,3.4947115 0 0 0 -0.0581,0.20862 l -0.0739,0.26456 0.0158,4.1e-4 a 3.1609427,3.4947115 0 0 0 -0.0585,0.66079 3.1609427,3.4947115 0 0 0 3.16095,3.49472 3.1609427,3.4947115 0 0 0 3.16096,-3.49472 3.1609427,3.4947115 0 0 0 -0.043,-0.56759 l 0.043,7.7e-4 -0.09,-0.24393 a 3.1609427,3.4947115 0 0 0 -0.36377,-0.98645 z"
       id="path1163-0" />
    <path
       inkscape:connector-curvature="0"
       style="opacity:1;fill:#000000;fill-opacity:1;fill-rule:nonzero;stroke:none;stroke-width:2;stroke-linecap:butt;stroke-linejoin:miter;stroke-miterlimit:4;stroke-dasharray:none;stroke-dashoffset:0;stroke-opacity:1;paint-order:stroke fill markers"
       d="m 143.62,180.1166 -2.34796,8.12049 a 2.8998952,3.0977798 0 0 0 -0.0533,0.18493 l -0.0678,0.23451 0.0145,3.6e-4 a 2.8998952,3.0977798 0 0 0 -0.0536,0.58574 2.8998952,3.0977798 0 0 0 2.8999,3.09779 2.8998952,3.0977798 0 0 0 2.89991,-3.09779 2.8998952,3.0977798 0 0 0 -0.0395,-0.50312 l 0.0395,6.8e-4 -0.0826,-0.21622 a 2.8998952,3.0977798 0 0 0 -0.33373,-0.87441 z"
       id="path1163-3" />
    <path
       inkscape:connector-curvature="0"
       style="opacity:1;fill:#000000;fill-opacity:1;fill-rule:nonzero;stroke:none;stroke-width:2;stroke-linecap:butt;stroke-linejoin:miter;stroke-miterlimit:4;stroke-dasharray:none;stroke-dashoffset:0;stroke-opacity:1;paint-order:stroke fill markers"
       d="m 158.40799,178.37627 -1.85478,7.65804 a 2.2907844,2.9213657 0 0 0 -0.0421,0.1744 l -0.0536,0.22115 0.0114,3.4e-4 a 2.2907844,2.9213657 0 0 0 -0.0424,0.55239 2.2907844,2.9213657 0 0 0 2.29079,2.92137 2.2907844,2.9213657 0 0 0 2.29079,-2.92137 2.2907844,2.9213657 0 0 0 -0.0312,-0.47447 l 0.0312,6.4e-4 -0.0653,-0.20391 a 2.2907844,2.9213657 0 0 0 -0.26362,-0.82461 z"
       id="path1163-00" />
    <path
       inkscape:connector-curvature="0"
       style="opacity:1;fill:#000000;fill-opacity:1;fill-rule:nonzero;stroke:none;stroke-width:2;stroke-linecap:butt;stroke-linejoin:miter;stroke-miterlimit:4;stroke-dasharray:none;stroke-dashoffset:0;stroke-opacity:1;paint-order:stroke fill markers"
       d="m 169.89887,177.50611 -2.34796,7.19559 a 2.8998952,2.7449515 0 0 0 -0.0533,0.16387 l -0.0678,0.2078 0.0145,3.2e-4 a 2.8998952,2.7449515 0 0 0 -0.0536,0.51902 2.8998952,2.7449515 0 0 0 2.8999,2.74496 2.8998952,2.7449515 0 0 0 2.89991,-2.74496 2.8998952,2.7449515 0 0 0 -0.0395,-0.44581 l 0.0395,6e-4 -0.0826,-0.19159 a 2.8998952,2.7449515 0 0 0 -0.33373,-0.77483 z"
       id="path1163-4" />
    <path
       inkscape:connector-curvature="0"
       style="opacity:1;fill:#000000;fill-opacity:1;fill-rule:nonzero;stroke:none;stroke-width:2;stroke-linecap:butt;stroke-linejoin:miter;stroke-miterlimit:4;stroke-dasharray:none;stroke-dashoffset:0;stroke-opacity:1;paint-order:stroke fill markers"
       d="m 100.55878,183.24917 -2.277507,8.35172 a 2.8128796,3.1859868 0 0 0 -0.05172,0.19019 l -0.06577,0.24119 0.01404,3.7e-4 a 2.8128796,3.1859868 0 0 0 -0.05203,0.60242 2.8128796,3.1859868 0 0 0 2.812887,3.18599 2.8128796,3.1859868 0 0 0 2.81289,-3.18599 2.8128796,3.1859868 0 0 0 -0.0383,-0.51745 l 0.0383,7e-4 -0.0801,-0.22238 a 2.8128796,3.1859868 0 0 0 -0.32371,-0.89931 z"
       id="path1163-1" />
    <path
       inkscape:connector-curvature="0"
       style="opacity:1;fill:#000000;fill-opacity:1;fill-rule:nonzero;stroke:none;stroke-width:2;stroke-linecap:butt;stroke-linejoin:miter;stroke-miterlimit:4;stroke-dasharray:none;stroke-dashoffset:0;stroke-opacity:1;paint-order:stroke fill markers"
       d="m 182.93397,178.71932 -0.97752,8.46154 a 2.2074397,3.1250954 0 0 0 -0.0222,0.19267 l -0.0282,0.24436 0.011,-0.002 a 2.2074397,3.1250954 0 0 0 0.0168,0.59326 2.2074397,3.1250954 0 0 0 2.48911,2.66739 2.2074397,3.1250954 0 0 0 1.88414,-3.52385 2.2074397,3.1250954 0 0 0 -0.0789,-0.49694 l 0.0298,-0.005 -0.0834,-0.20387 a 2.2074397,3.1250954 0 0 0 -0.33702,-0.82452 z"
       id="path1163-9" />
    <path
       style="opacity:1;fill:#44aa00;fill-opacity:1;fill-rule:nonzero;stroke:none;stroke-width:7.55905533;stroke-linecap:butt;stroke-linejoin:miter;stroke-miterlimit:4;stroke-dasharray:none;stroke-dashoffset:0;stroke-opacity:1;paint-order:stroke fill markers"
       d="m 481.66258,565.25879 c -48.10706,-7.13397 -76.86143,-14.31845 -111.16136,-27.77443 -40.41286,-15.85411 -77.33771,-36.90992 -109.47192,-62.42458 -17.19984,-13.65672 -45.48986,-41.3426 -59.36191,-58.09421 -16.62929,-20.08119 -41.80812,-57.69708 -39.89866,-59.60655 0.43261,-0.4326 4.95158,-1.08456 10.04216,-1.44879 7.82719,-0.56003 9.2556,-0.3424 9.2556,1.41017 0,1.13982 0.68345,2.4948 1.51877,3.01106 1.00497,0.62111 1.15873,0.35608 0.45451,-0.78338 -0.6893,-1.1153 -0.5494,-1.40382 0.39704,-0.81889 0.80373,0.49673 1.14411,1.7298 0.7564,2.74015 -0.7713,2.01 8.40174,12.54378 10.92646,12.54729 0.85566,10e-4 1.93152,1.18613 2.3908,2.6332 0.45929,1.44707 1.37429,2.63104 2.03334,2.63104 1.83592,0 15.32776,13.08026 20.35369,19.73278 2.45981,3.25591 7.42731,8.28777 11.03888,11.18191 3.61157,2.89415 6.59595,6.01663 6.63196,6.93887 0.036,0.92223 2.58139,3.20532 5.65642,5.07353 3.07503,1.86822 7.6629,6.0617 10.19527,9.31885 2.53238,3.25716 6.39229,6.69704 8.57758,7.64417 2.1853,0.94715 5.08897,2.95492 6.45261,4.46172 1.36364,1.5068 3.08553,2.73964 3.82644,2.73964 0.74091,0 3.26235,1.92394 5.60322,4.27543 6.17986,6.20791 14.00263,12.22489 15.35059,11.80708 0.64142,-0.1988 0.80965,0.21548 0.37383,0.92064 -0.98237,1.58951 4.10668,4.47031 5.91868,3.35044 0.7265,-0.449 1.15826,-0.0324 0.95946,0.92581 -0.19882,0.9582 0.3572,1.60129 1.23557,1.42909 0.87839,-0.17222 1.28484,0.5005 0.90326,1.49491 -0.89014,2.31967 10.89751,10.41551 13.98828,9.60725 1.67487,-0.43799 2.08709,0.0449 1.60663,1.88214 -0.85952,3.28684 2.07959,6.64958 5.00138,5.72225 1.28403,-0.40754 2.71534,-0.12485 3.18071,0.62805 0.46536,0.75298 1.72757,1.36903 2.80493,1.36903 1.07736,0 5.1978,2.07195 9.15654,4.60432 3.95874,2.53238 8.51818,4.6253 10.13209,4.65094 1.6139,0.0256 4.41433,0.89263 6.22317,1.92666 1.80884,1.03402 4.55743,1.90103 6.10796,1.92665 1.55055,0.0257 3.15992,0.9346 3.5764,2.0199 0.41647,1.08531 2.22082,1.97328 4.00966,1.97328 1.78885,0 3.62428,0.60164 4.07874,1.33698 0.45446,0.73533 1.39205,0.98733 2.08351,0.55997 0.69148,-0.42734 1.09455,0.007 0.89575,0.96519 -0.23839,1.14889 1.08379,1.76882 3.88257,1.82043 2.33423,0.043 4.70216,0.58192 5.26208,1.19754 0.55991,0.61562 0.1301,0.6845 -0.95526,0.15309 -1.0853,-0.53143 -0.8501,-0.0533 0.52269,1.06246 1.37278,1.11578 2.95982,1.74201 3.52677,1.39162 0.56695,-0.3504 1.40266,-0.0354 1.85712,0.6999 0.45446,0.73533 3.46331,1.33697 6.68635,1.33697 3.22302,0 6.88798,0.52292 8.14435,1.16204 3.24149,1.64895 8.03282,3.47563 14.12398,5.38468 2.89414,0.90707 7.18148,2.53435 9.52742,3.61619 2.34594,1.08183 6.3006,1.72937 8.78814,1.43896 2.48753,-0.2904 4.41602,0.0384 4.28553,0.73064 -0.4464,2.36801 27.27784,7.96111 30.50633,6.15436 1.34502,-0.75271 3.28449,-0.53244 5.40939,0.61434 3.05811,1.65042 8.60803,2.72323 31.59624,6.10757 4.70298,0.69239 28.56075,1.56763 53.01727,1.94498 41.47445,0.63995 44.70526,0.52509 48.01645,-1.70707 9.57887,-6.45738 18.92303,-11.23165 23.28283,-11.89606 2.1706,-0.33079 5.25769,-1.44306 6.86019,-2.47171 1.6025,-1.02865 4.56242,-1.88911 6.5776,-1.91212 2.01518,-0.023 4.72743,-0.84837 6.02726,-1.83413 1.29981,-0.98576 3.49486,-1.49638 4.8779,-1.13472 1.41659,0.37045 4.05228,-0.55194 6.0361,-2.11242 2.01049,-1.58144 5.43873,-2.77001 7.98969,-2.77001 2.75818,0 4.758,-0.75518 5.22541,-1.97328 0.44977,-1.17203 2.4361,-1.97656 4.89192,-1.98138 2.27407,-0.004 5.83031,-0.89243 7.90274,-1.97328 2.07243,-1.08084 4.58836,-1.96517 5.59096,-1.96517 1.0026,0 1.8229,-0.52295 1.8229,-1.16209 0,-0.63915 1.03597,-1.5433 2.30216,-2.00923 1.26619,-0.46592 4.3741,-1.98649 6.90647,-3.37905 2.53238,-1.39254 5.71554,-2.56032 7.07369,-2.59508 2.46108,-0.063 17.65831,-7.2494 25.15653,-11.89596 2.17061,-1.34511 5.27852,-2.4889 6.90647,-2.54178 1.62796,-0.0529 2.95992,-0.64825 2.95992,-1.32302 0,-0.67478 1.06407,-1.5646 2.36461,-1.97737 1.30053,-0.41277 5.88841,-4.00433 10.19527,-7.98125 4.30686,-3.97694 8.27465,-7.231 8.81731,-7.23128 0.54265,-2.8e-4 0.98663,-0.81666 0.98663,-1.81418 0,-0.99752 1.73342,-2.53168 3.85203,-3.40925 2.11862,-0.87755 4.17198,-2.42933 4.56303,-3.44839 0.39106,-1.01906 1.61755,-1.85283 2.72558,-1.85283 1.108,0 2.01456,-0.54993 2.01456,-1.22207 0,-0.67213 4.29188,-3.90792 9.53751,-7.19062 12.29817,-7.69618 17.41284,-12.55191 22.76513,-21.61263 1.35747,-2.298 2.89258,-4.17818 3.41135,-4.17818 0.51878,0 1.28852,-1.08786 1.71051,-2.41747 0.422,-1.32961 2.51551,-4.43753 4.65224,-6.90648 5.1241,-5.92081 4.61584,-5.27511 15.44196,-19.61746 5.18842,-6.87359 11.09278,-14.34711 13.1208,-16.60782 4.20738,-4.69012 5.85322,-6.69965 12.25628,-14.96464 2.52243,-3.25591 5.32621,-6.39324 6.23063,-6.97184 0.90442,-0.57861 1.6444,-1.87068 1.6444,-2.87127 0,-1.0006 1.19046,-2.1971 2.64547,-2.6589 1.455,-0.4618 3.4882,-2.42564 4.51821,-4.36409 1.03,-1.93844 3.39145,-5.12656 5.24765,-7.08471 1.85619,-1.95814 3.3749,-4.05914 3.3749,-4.66888 0,-0.60974 2.32803,-3.74349 5.17341,-6.96389 2.84538,-3.2204 6.7459,-7.77922 8.66782,-10.13071 2.73949,-3.3518 4.49461,-4.27543 8.12438,-4.27543 4.3799,0 4.58408,0.1954 3.78017,3.61767 -1.39271,5.92871 -16.95759,36.75748 -26.4012,52.29188 -27.73068,45.61594 -66.14507,86.82401 -110.50594,118.5425 -36.79452,26.30846 -86.07345,49.88047 -130.15606,62.25864 -44.44968,12.48125 -61.89923,14.74937 -117.16152,15.22889 -25.32374,0.21975 -47.81911,0.13617 -49.98972,-0.18571 z"
       id="path1243"
       inkscape:connector-curvature="0"
       transform="matrix(0.26458333,0,0,0.26458333,0,87)" />
    <path
       inkscape:connector-curvature="0"
       style="opacity:1;fill:#000000;fill-opacity:1;fill-rule:nonzero;stroke:none;stroke-width:2;stroke-linecap:butt;stroke-linejoin:miter;stroke-miterlimit:4;stroke-dasharray:none;stroke-dashoffset:0;stroke-opacity:1;paint-order:stroke fill markers"
       d="m 111.57985,202.18375 -0.97752,8.46154 a 2.2074397,3.1250953 0 0 0 -0.0222,0.19267 l -0.0282,0.24436 0.011,-0.002 a 2.2074397,3.1250953 0 0 0 0.0168,0.59326 2.2074397,3.1250953 0 0 0 2.48911,2.66739 2.2074397,3.1250953 0 0 0 1.88414,-3.52385 2.2074397,3.1250953 0 0 0 -0.0789,-0.49694 l 0.0298,-0.005 -0.0834,-0.20387 a 2.2074397,3.1250953 0 0 0 -0.33702,-0.82452 z"
       id="path1163-9-9" />
    <path
       inkscape:connector-curvature="0"
       style="opacity:1;fill:#000000;fill-opacity:1;fill-rule:nonzero;stroke:none;stroke-width:2;stroke-linecap:butt;stroke-linejoin:miter;stroke-miterlimit:4;stroke-dasharray:none;stroke-dashoffset:0;stroke-opacity:1;paint-order:stroke fill markers"
       d="m 130.67334,200.51752 -0.97752,8.46154 a 2.2074397,3.1250953 0 0 0 -0.0222,0.19267 l -0.0282,0.24436 0.011,-0.002 a 2.2074397,3.1250953 0 0 0 0.0168,0.59326 2.2074397,3.1250953 0 0 0 2.48911,2.66739 2.2074397,3.1250953 0 0 0 1.88414,-3.52385 2.2074397,3.1250953 0 0 0 -0.0789,-0.49694 l 0.0298,-0.005 -0.0834,-0.20387 a 2.2074397,3.1250953 0 0 0 -0.33702,-0.82452 z"
       id="path1163-9-2" />
    <path
       inkscape:connector-curvature="0"
       style="opacity:1;fill:#000000;fill-opacity:1;fill-rule:nonzero;stroke:none;stroke-width:2;stroke-linecap:butt;stroke-linejoin:miter;stroke-miterlimit:4;stroke-dasharray:none;stroke-dashoffset:0;stroke-opacity:1;paint-order:stroke fill markers"
       d="m 153.91756,200.1272 -0.97752,8.46154 a 2.2074397,3.1250953 0 0 0 -0.0222,0.19267 l -0.0282,0.24436 0.011,-0.002 a 2.2074397,3.1250953 0 0 0 0.0168,0.59326 2.2074397,3.1250953 0 0 0 2.48911,2.66739 2.2074397,3.1250953 0 0 0 1.88414,-3.52385 2.2074397,3.1250953 0 0 0 -0.0789,-0.49694 l 0.0298,-0.005 -0.0834,-0.20387 a 2.2074397,3.1250953 0 0 0 -0.33702,-0.82452 z"
       id="path1163-9-1" />
    <path
       inkscape:connector-curvature="0"
       style="opacity:1;fill:#000000;fill-opacity:1;fill-rule:nonzero;stroke:none;stroke-width:2;stroke-linecap:butt;stroke-linejoin:miter;stroke-miterlimit:4;stroke-dasharray:none;stroke-dashoffset:0;stroke-opacity:1;paint-order:stroke fill markers"
       d="m 168.05908,195.10924 -0.97752,8.46154 a 2.2074397,3.1250953 0 0 0 -0.0222,0.19267 l -0.0282,0.24436 0.011,-0.002 a 2.2074397,3.1250953 0 0 0 0.0168,0.59326 2.2074397,3.1250953 0 0 0 2.48911,2.66739 2.2074397,3.1250953 0 0 0 1.88414,-3.52385 2.2074397,3.1250953 0 0 0 -0.0789,-0.49694 l 0.0298,-0.005 -0.0834,-0.20387 a 2.2074397,3.1250953 0 0 0 -0.33702,-0.82452 z"
       id="path1163-9-5" />
    <path
       inkscape:connector-curvature="0"
       style="opacity:1;fill:#000000;fill-opacity:1;fill-rule:nonzero;stroke:none;stroke-width:2;stroke-linecap:butt;stroke-linejoin:miter;stroke-miterlimit:4;stroke-dasharray:none;stroke-dashoffset:0;stroke-opacity:1;paint-order:stroke fill markers"
       d="m 77.514966,189.78231 -0.97752,8.46154 a 2.2074397,3.1250953 0 0 0 -0.0222,0.19267 l -0.0282,0.24436 0.011,-0.002 a 2.2074397,3.1250953 0 0 0 0.0168,0.59326 2.2074397,3.1250953 0 0 0 2.48911,2.66739 2.2074397,3.1250953 0 0 0 1.88414,-3.52385 2.2074397,3.1250953 0 0 0 -0.0789,-0.49694 l 0.0298,-0.005 -0.0834,-0.20387 a 2.2074397,3.1250953 0 0 0 -0.33702,-0.82452 z"
       id="path1163-9-6" />
    <path
       inkscape:connector-curvature="0"
       style="opacity:1;fill:#000000;fill-opacity:1;fill-rule:nonzero;stroke:none;stroke-width:2;stroke-linecap:butt;stroke-linejoin:miter;stroke-miterlimit:4;stroke-dasharray:none;stroke-dashoffset:0;stroke-opacity:1;paint-order:stroke fill markers"
       d="m 199.01429,181.5085 -0.97752,8.46154 a 2.2074397,3.1250953 0 0 0 -0.0222,0.19267 l -0.0282,0.24436 0.011,-0.002 a 2.2074397,3.1250953 0 0 0 0.0168,0.59326 2.2074397,3.1250953 0 0 0 2.48911,2.66739 2.2074397,3.1250953 0 0 0 1.88414,-3.52385 2.2074397,3.1250953 0 0 0 -0.0789,-0.49694 l 0.0298,-0.005 -0.0834,-0.20387 a 2.2074397,3.1250953 0 0 0 -0.33702,-0.82452 z"
       id="path1163-9-8" />
  </g>
</svg>
