<?xml version="1.0" encoding="UTF-8" standalone="no"?>
<!-- Created with Inkscape (http://www.inkscape.org/) -->

<svg
   xmlns:dc="http://purl.org/dc/elements/1.1/"
   xmlns:cc="http://creativecommons.org/ns#"
   xmlns:rdf="http://www.w3.org/1999/02/22-rdf-syntax-ns#"
   xmlns:svg="http://www.w3.org/2000/svg"
   xmlns="http://www.w3.org/2000/svg"
   xmlns:sodipodi="http://sodipodi.sourceforge.net/DTD/sodipodi-0.dtd"
   xmlns:inkscape="http://www.inkscape.org/namespaces/inkscape"
   width="297mm"
   height="210mm"
   viewBox="0 0 297 210"
   version="1.1"
   id="svg1395"
   inkscape:version="0.92.2 (5c3e80d, 2017-08-06)"
   sodipodi:docname="strar.svg">
  <defs
     id="defs1389">
    <inkscape:path-effect
       effect="spiro"
       id="path-effect2160"
       is_visible="true" />
    <inkscape:path-effect
       effect="spiro"
       id="path-effect1998"
       is_visible="true" />
    <inkscape:path-effect
       effect="spiro"
       id="path-effect1994"
       is_visible="true" />
    <inkscape:path-effect
       effect="spiro"
       id="path-effect1990"
       is_visible="true" />
    <inkscape:path-effect
       effect="spiro"
       id="path-effect1986"
       is_visible="true" />
    <inkscape:path-effect
       effect="spiro"
       id="path-effect1982"
       is_visible="true" />
    <inkscape:path-effect
       effect="spiro"
       id="path-effect1978"
       is_visible="true" />
    <inkscape:path-effect
       effect="spiro"
       id="path-effect1970"
       is_visible="true" />
    <inkscape:path-effect
       effect="spiro"
       id="path-effect1966"
       is_visible="true" />
    <inkscape:path-effect
       effect="spiro"
       id="path-effect1962"
       is_visible="true" />
    <inkscape:path-effect
       effect="spiro"
       id="path-effect1958"
       is_visible="true" />
    <inkscape:path-effect
       effect="spiro"
       id="path-effect1954"
       is_visible="true" />
    <inkscape:path-effect
       effect="spiro"
       id="path-effect1950"
       is_visible="true" />
    <inkscape:path-effect
       effect="spiro"
       id="path-effect1998-6"
       is_visible="true" />
    <inkscape:path-effect
       effect="spiro"
       id="path-effect1994-3"
       is_visible="true" />
    <inkscape:path-effect
       effect="spiro"
       id="path-effect1990-5"
       is_visible="true" />
    <inkscape:path-effect
       effect="spiro"
       id="path-effect1986-6"
       is_visible="true" />
    <inkscape:path-effect
       effect="spiro"
       id="path-effect1982-3"
       is_visible="true" />
    <inkscape:path-effect
       effect="spiro"
       id="path-effect1978-7"
       is_visible="true" />
    <inkscape:path-effect
       effect="spiro"
       id="path-effect1970-8"
       is_visible="true" />
    <inkscape:path-effect
       effect="spiro"
       id="path-effect1966-8"
       is_visible="true" />
    <inkscape:path-effect
       effect="spiro"
       id="path-effect1962-3"
       is_visible="true" />
    <inkscape:path-effect
       effect="spiro"
       id="path-effect1958-8"
       is_visible="true" />
    <inkscape:path-effect
       effect="spiro"
       id="path-effect1954-2"
       is_visible="true" />
    <inkscape:path-effect
       effect="spiro"
       id="path-effect1950-9"
       is_visible="true" />
  </defs>
  <sodipodi:namedview
     id="base"
     pagecolor="#ffffff"
     bordercolor="#666666"
     borderopacity="1.0"
     inkscape:pageopacity="0.0"
     inkscape:pageshadow="2"
     inkscape:zoom="0.46669048"
     inkscape:cx="717.33153"
     inkscape:cy="313.9007"
     inkscape:document-units="mm"
     inkscape:current-layer="layer1"
     showgrid="false"
     inkscape:window-width="1366"
     inkscape:window-height="705"
     inkscape:window-x="-8"
     inkscape:window-y="-8"
     inkscape:window-maximized="1" />
  <metadata
     id="metadata1392">
    <rdf:RDF>
      <cc:Work
         rdf:about="">
        <dc:format>image/svg+xml</dc:format>
        <dc:type
           rdf:resource="http://purl.org/dc/dcmitype/StillImage" />
        <dc:title></dc:title>
      </cc:Work>
    </rdf:RDF>
  </metadata>
  <g
     inkscape:label="Capa 1"
     inkscape:groupmode="layer"
     id="layer1"
     transform="translate(0,-87)">
    <rect
       style="opacity:1;fill:#162d50;fill-opacity:1;fill-rule:nonzero;stroke:none;stroke-width:78.30000305;stroke-linecap:butt;stroke-linejoin:miter;stroke-miterlimit:4;stroke-dasharray:none;stroke-dashoffset:0;stroke-opacity:1;paint-order:stroke fill markers"
       id="rect2164"
       width="297.0741"
       height="211.46689"
       x="0.56693536"
       y="87.800858" />
    <path
       sodipodi:type="star"
       style="opacity:1;fill:#ffcc00;fill-opacity:1;fill-rule:nonzero;stroke:none;stroke-width:92.65219116;stroke-linecap:butt;stroke-linejoin:miter;stroke-miterlimit:4;stroke-dasharray:none;stroke-dashoffset:0;stroke-opacity:1;paint-order:stroke fill markers"
       id="path2154"
       sodipodi:sides="5"
       sodipodi:cx="149.10399"
       sodipodi:cy="194.84496"
       sodipodi:r1="106.00933"
       sodipodi:r2="63.605602"
       sodipodi:arg1="1.0065281"
       sodipodi:arg2="1.6348467"
       inkscape:flatsided="false"
       inkscape:rounded="0.11"
       inkscape:randomized="0"
       d="m 205.79753,284.42074 c -6.14693,3.89046 -53.50499,-25.63498 -60.76472,-26.10061 -7.25973,-0.46562 -58.001631,22.76788 -63.601187,18.12402 -5.599556,-4.64386 7.846366,-58.80791 6.045821,-65.85621 -1.800543,-7.04829 -39.577031,-48.12716 -36.890816,-54.88769 2.686216,-6.76053 58.354312,-10.71031 64.501242,-14.60077 6.14693,-3.89046 33.54168,-52.512106 40.80141,-52.046481 7.25973,0.465625 28.21858,52.188581 33.81813,56.832441 5.59956,4.64386 60.30693,15.6729 62.10748,22.7212 1.80054,7.04829 -40.91427,42.96462 -43.60048,49.72514 -2.68622,6.76053 3.73005,62.1985 -2.41688,66.08896 z"
       inkscape:transform-center-x="-41.272366"
       inkscape:transform-center-y="11.631219"
       transform="matrix(0.87052433,0,0,0.82041062,26.374778,31.299632)" />
    <path
       style="opacity:1;fill:#d4aa00;fill-opacity:1;fill-rule:nonzero;stroke:none;stroke-width:78.29999542;stroke-linecap:butt;stroke-linejoin:miter;stroke-miterlimit:4;stroke-dasharray:none;stroke-dashoffset:0;stroke-opacity:1;paint-order:stroke fill markers"
       d="m 96.628521,257.00324 c -0.66567,-1.91469 -0.189132,-10.31998 1.020104,-17.99285 0.665219,-4.22096 2.02357,-12.38381 3.018555,-18.13967 0.99498,-5.75586 1.83947,-12.03498 1.87664,-13.95359 0.0647,-3.34037 -0.0161,-3.60683 -1.90508,-6.27912 -1.084965,-1.5349 -5.430986,-6.9768 -9.657825,-12.09311 -14.214901,-17.20624 -18.925844,-23.58591 -20.191461,-27.34379 -0.961304,-2.85432 0.424783,-3.80852 8.226803,-5.66344 4.412494,-1.04907 10.010303,-1.96491 34.206063,-5.59637 11.53473,-1.73121 12.83738,-2.14391 15.46674,-4.90004 1.199,-1.2568 4.91646,-6.11064 8.26103,-10.78631 12.598,-17.6119 21.35975,-28.73393 22.63607,-28.73393 0.22881,0 0.54826,0.32483 0.70992,0.72184 0.19055,0.46797 0.095,0.60597 -0.27171,0.39238 -0.38472,-0.22408 -0.47655,-0.008 -0.28713,0.67417 0.18021,0.64949 0.091,0.8944 -0.2529,0.69411 -0.33933,-0.19765 -0.41392,-0.021 -0.20639,0.48863 0.21737,0.53386 0.13769,0.68905 -0.24064,0.46869 -0.38472,-0.22408 -0.47656,-0.008 -0.28714,0.67417 0.18022,0.64949 0.091,0.8944 -0.25289,0.69411 -0.33933,-0.19765 -0.41392,-0.0211 -0.20639,0.48863 0.21737,0.53386 0.13769,0.68905 -0.24064,0.46869 -0.38473,-0.22408 -0.47656,-0.008 -0.28714,0.67417 0.15316,0.55198 0.0931,0.89563 -0.13349,0.76365 -0.55711,-0.32449 -1.13048,1.48817 -0.68541,2.16686 0.21242,0.32392 0.14042,0.41623 -0.17937,0.22997 -0.64679,-0.37673 -1.3065,1.33498 -0.80769,2.09562 0.21242,0.32392 0.14042,0.41624 -0.17938,0.22997 -0.64678,-0.37672 -1.3065,1.33499 -0.80768,2.09563 0.21242,0.32392 0.14041,0.41623 -0.17938,0.22997 -0.64678,-0.37672 -1.3065,1.33499 -0.80768,2.09563 0.21242,0.32392 0.14041,0.41623 -0.17938,0.22997 -0.64678,-0.37672 -1.3065,1.33499 -0.80768,2.09563 0.23605,0.35995 0.13806,0.41486 -0.29266,0.16399 -0.4824,-0.28098 -0.57651,-0.12123 -0.36904,0.62646 0.18022,0.64949 0.091,0.8944 -0.2529,0.69411 -0.33932,-0.19765 -0.41392,-0.0211 -0.20639,0.48863 0.21738,0.53385 0.13769,0.68905 -0.24064,0.46869 -0.38472,-0.22408 -0.47655,-0.008 -0.28713,0.67416 0.18021,0.6495 0.091,0.89441 -0.2529,0.69411 -0.33933,-0.19764 -0.41392,-0.0211 -0.20639,0.48864 0.21737,0.53385 0.13769,0.68905 -0.24064,0.46869 -0.38472,-0.22408 -0.47655,-0.008 -0.28713,0.67416 0.18021,0.6495 0.091,0.89441 -0.2529,0.69411 -0.33933,-0.19764 -0.41392,-0.021 -0.20639,0.48864 0.21737,0.53385 0.13769,0.68905 -0.24064,0.46869 -0.38472,-0.22408 -0.47655,-0.008 -0.28714,0.67416 0.15316,0.55199 0.0931,0.89564 -0.13349,0.76366 -0.55711,-0.32449 -1.13048,1.48816 -0.6854,2.16685 0.21242,0.32392 0.14041,0.41624 -0.17938,0.22997 -0.64678,-0.37672 -1.3065,1.33499 -0.80769,2.09563 0.21243,0.32392 0.14042,0.41624 -0.17937,0.22997 -0.64679,-0.37672 -1.3065,1.33499 -0.80769,2.09563 0.21242,0.32392 0.14042,0.41623 -0.17938,0.22997 -0.64678,-0.37672 -1.3065,1.33499 -0.80768,2.09563 0.21242,0.32392 0.14041,0.41623 -0.17938,0.22997 -0.64678,-0.37672 -1.3065,1.33499 -0.80768,2.09563 0.22084,0.33676 0.13968,0.4158 -0.21491,0.20927 -0.52905,-0.30814 -0.76407,0.33596 -0.70326,1.92734 0.0121,0.31702 -0.17498,0.46164 -0.41578,0.32139 -0.40147,-0.23384 -0.62662,0.55604 -0.57128,2.00421 0.0121,0.31702 -0.17498,0.46164 -0.41578,0.32139 -0.40147,-0.23384 -0.62662,0.55604 -0.57128,2.00421 0.0121,0.31701 -0.1513,0.47544 -0.36314,0.35205 -0.21183,-0.12339 -0.51886,0.2777 -0.68227,0.8913 -0.24758,0.92966 -0.70894,1.16903 -2.76753,1.43585 -1.35873,0.17612 -2.37475,0.46611 -2.25781,0.64442 0.11693,0.17832 -0.57943,0.23707 -1.54749,0.13056 -1.33858,-0.14728 -1.6666,-0.0511 -1.36972,0.40163 0.26219,0.3998 0.19386,0.48082 -0.20808,0.2467 -0.68559,-0.39932 -8.99528,0.66099 -8.70069,1.11021 0.10661,0.16257 -0.5982,0.20844 -1.56626,0.10194 -0.99237,-0.10919 -1.63818,-0.008 -1.48059,0.23256 0.15759,0.24031 -0.48821,0.34174 -1.48059,0.23256 -1.33859,-0.14728 -1.66661,-0.0511 -1.36972,0.40163 0.26561,0.40502 0.19404,0.48092 -0.22393,0.23747 -0.67803,-0.39492 -14.89177,1.61576 -14.59721,2.06493 0.10111,0.15419 -0.6082,0.19319 -1.57626,0.0867 -1.33858,-0.14728 -1.666607,-0.0511 -1.36972,0.40163 0.25758,0.39278 0.19363,0.48068 -0.188,0.2584 -0.696735,-0.40582 -6.066505,0.16536 -5.772298,0.614 0.113606,0.17324 -0.585484,0.22783 -1.553539,0.12132 -1.338584,-0.14727 -1.666608,-0.0511 -1.36972,0.40163 0.257583,0.39279 0.193628,0.48069 -0.188001,0.25841 -0.747976,-0.43567 -6.055487,0.18217 -5.736998,0.66783 0.133022,0.20284 -0.199062,0.26014 -0.737966,0.12733 -0.538903,-0.13282 -1.558209,-0.10467 -2.265124,0.0625 -1.077692,0.2549 -1.185777,0.41703 -0.669147,1.0037 0.338886,0.38482 0.911044,0.59303 1.271463,0.46269 0.360417,-0.13034 0.602446,0.0171 0.537842,0.32768 -0.0646,0.31056 0.326718,0.56493 0.869601,0.56527 0.542884,4.3e-4 0.992419,0.31429 0.998967,0.69768 0.0065,0.38338 0.386494,0.66936 0.844325,0.63551 0.457831,-0.0339 0.785608,0.17544 0.728391,0.46512 -0.05722,0.28967 0.275919,0.49897 0.740298,0.46512 0.464379,-0.0339 0.797512,0.17544 0.740296,0.46512 -0.05721,0.28967 0.268952,0.52934 0.724818,0.5326 0.455864,0.003 1.011087,0.19381 1.233828,0.42342 0.235939,0.24322 0.115649,0.25928 -0.288189,0.0385 -0.480921,-0.26295 -0.578973,-0.20486 -0.320227,0.1897 0.205119,0.31278 0.676498,0.45891 1.047512,0.32474 0.371014,-0.13418 0.827042,-0.0114 1.013397,0.27271 0.225123,0.34329 0.106212,0.38456 -0.354343,0.12297 -0.591815,-0.33615 -0.591405,-0.27555 0.0028,0.41442 0.382791,0.44447 0.990873,0.70148 1.35129,0.57114 0.360419,-0.13034 0.602448,0.0171 0.537844,0.32767 -0.0646,0.31057 0.255517,0.56733 0.711383,0.57059 0.455866,0.003 1.011089,0.19381 1.233828,0.42342 0.235941,0.24322 0.115651,0.25928 -0.288187,0.0385 -0.480921,-0.26295 -0.578975,-0.20486 -0.320227,0.1897 0.205117,0.31278 0.676498,0.45891 1.04751,0.32474 0.371014,-0.13418 0.827042,-0.0114 1.013396,0.27271 0.225126,0.34329 0.106215,0.38456 -0.354343,0.12297 -0.591814,-0.33615 -0.591401,-0.27555 0.0028,0.41442 0.382791,0.44447 0.990871,0.70148 1.35129,0.57114 0.360416,-0.13034 0.602446,0.0171 0.537841,0.32767 -0.0646,0.31057 0.25552,0.56733 0.711386,0.57059 0.455864,0.003 1.011083,0.19381 1.233823,0.42342 0.23594,0.24322 0.11565,0.25928 -0.288184,0.0385 -0.480919,-0.26295 -0.578973,-0.20486 -0.320227,0.1897 0.205119,0.31278 0.676501,0.45891 1.047511,0.32474 0.37101,-0.13418 0.82704,-0.0114 1.0134,0.27271 0.22512,0.34329 0.10621,0.38456 -0.35435,0.12297 -0.59181,-0.33615 -0.5914,-0.27555 0.003,0.41442 0.38279,0.44447 0.99088,0.70148 1.35129,0.57114 0.36042,-0.13034 0.60245,0.0171 0.53785,0.32767 -0.0646,0.31057 0.25551,0.56733 0.71138,0.57059 0.45587,0.003 1.01109,0.19381 1.23383,0.42342 0.23594,0.24322 0.11565,0.25928 -0.28819,0.0385 -0.48092,-0.26295 -0.57897,-0.20486 -0.32023,0.1897 0.20512,0.31278 0.6765,0.45891 1.04752,0.32474 0.37101,-0.13418 0.82704,-0.0114 1.01339,0.27271 0.22513,0.34329 0.10622,0.38455 -0.35434,0.12297 -0.59182,-0.33615 -0.5914,-0.27555 0.003,0.41442 0.38279,0.44447 0.99087,0.70148 1.35129,0.57114 0.36041,-0.13034 0.60244,0.0171 0.53784,0.32767 -0.0646,0.31056 0.26248,0.53696 0.72686,0.50311 0.46438,-0.0339 0.79752,0.17544 0.7403,0.46511 -0.0572,0.28968 0.34015,0.52696 0.88303,0.5273 0.54289,4.3e-4 0.99242,0.31429 0.99897,0.69768 0.007,0.38338 0.38649,0.66936 0.84432,0.63551 0.45783,-0.0339 0.78561,0.17544 0.7284,0.46511 -0.0572,0.28968 0.27591,0.49898 0.74029,0.46512 0.46438,-0.0339 0.79751,0.17545 0.7403,0.46512 -0.0572,0.28968 0.26895,0.52935 0.72482,0.53261 0.45586,0.003 1.01109,0.1938 1.23382,0.42342 0.23594,0.24321 0.11565,0.25928 -0.28818,0.0385 -0.48092,-0.26295 -0.57898,-0.20486 -0.32023,0.1897 0.20512,0.31278 0.6765,0.45891 1.04751,0.32474 0.37102,-0.13418 0.82704,-0.0114 1.0134,0.27271 0.22512,0.34329 0.10621,0.38455 -0.35435,0.12296 -0.59181,-0.33614 -0.5914,-0.27554 0.003,0.41443 0.38279,0.44447 0.99088,0.70148 1.3513,0.57114 0.36041,-0.13035 0.60244,0.0171 0.53784,0.32767 -0.0646,0.31056 0.25552,0.56733 0.71138,0.57059 0.45587,0.003 1.01109,0.1938 1.23383,0.42342 0.23594,0.24321 0.11565,0.25928 -0.28819,0.0385 -0.48092,-0.26295 -0.57897,-0.20486 -0.32022,0.1897 0.20511,0.31278 0.67649,0.45891 1.04751,0.32474 0.37101,-0.13418 0.82704,-0.0114 1.01339,0.27271 0.22513,0.34329 0.10622,0.38455 -0.35434,0.12296 -0.59181,-0.33614 -0.5914,-0.27554 0.003,0.41443 0.38279,0.44447 0.99087,0.70148 1.35129,0.57114 0.36042,-0.13035 0.60245,0.0171 0.53784,0.32767 -0.0646,0.31056 0.25553,0.56733 0.71139,0.57059 0.45587,0.003 1.01109,0.1938 1.23383,0.42342 0.23594,0.24321 0.11565,0.25928 -0.28819,0.0385 -0.4722,-0.25818 -0.57833,-0.20388 -0.33293,0.17032 0.19813,0.30213 0.72716,0.49145 1.17563,0.42071 0.44846,-0.0707 0.82037,0.12898 0.82646,0.44382 0.0144,0.74587 2.09882,2.11817 2.69226,1.77252 0.25221,-0.1469 0.61927,-0.0221 0.81568,0.27748 0.23808,0.36305 0.14178,0.41914 -0.28892,0.16828 -0.44034,-0.25648 -0.52729,-0.19521 -0.2731,0.19241 0.20512,0.31278 0.69515,0.45216 1.08895,0.30975 0.39381,-0.14242 0.59588,-0.0757 0.44905,0.14815 -0.37296,0.56871 1.04421,1.58997 1.6869,1.21564 0.29006,-0.16895 0.46635,-0.03 0.39177,0.3088 -0.075,0.34067 0.24801,0.58747 0.72275,0.5522 0.47211,-0.0351 0.7435,0.11141 0.6031,0.32551 -0.28957,0.44155 1.44974,1.44927 1.92836,1.11726 0.17141,-0.11891 0.20843,-0.084 0.0822,0.0775 -0.12617,0.16155 0.007,0.71006 0.29601,1.21893 0.31498,0.55466 0.32964,0.81119 0.0366,0.64052 -0.64592,-0.37622 -2.2165,1.90955 -1.77484,2.58304 0.19694,0.30031 0.12343,0.39564 -0.17227,0.22341 -0.6304,-0.36717 -2.26598,1.85956 -1.84142,2.50697 0.16718,0.25492 0.01,0.40599 -0.34964,0.3357 -0.36149,-0.0707 -0.62336,0.23374 -0.58593,0.68115 0.0372,0.44492 -0.10507,0.70835 -0.31617,0.58539 -0.53772,-0.31319 -2.08027,2.01838 -1.70945,2.58383 0.16718,0.25493 0.01,0.406 -0.34963,0.33571 -0.36149,-0.0707 -0.62336,0.23374 -0.58594,0.68115 0.0372,0.44492 -0.10506,0.70835 -0.31617,0.58539 -0.53771,-0.31319 -2.08026,2.01838 -1.70944,2.58383 0.16717,0.25493 0.01,0.406 -0.34964,0.33571 -0.35948,-0.0703 -0.6242,0.23027 -0.58828,0.66791 0.0359,0.43765 -0.18616,0.7516 -0.49353,0.69768 -0.30737,-0.0539 -0.52946,0.26003 -0.49353,0.69768 0.0359,0.43765 -0.18616,0.7516 -0.49353,0.69768 -0.30737,-0.0539 -0.52946,0.26003 -0.49353,0.69768 0.0359,0.43765 -0.18617,0.7516 -0.49354,0.69768 -0.30736,-0.0539 -0.5284,0.26599 -0.49118,0.71091 0.0385,0.46005 -0.15735,0.6779 -0.45402,0.5051 -0.32307,-0.18817 -0.40401,-0.0148 -0.2126,0.45523 0.16999,0.4175 0.0624,0.90278 -0.23915,1.07841 -0.35507,0.20681 -0.40755,0.1048 -0.14896,-0.28953 0.27215,-0.41499 0.20714,-0.49694 -0.20416,-0.25738 -0.33188,0.19331 -0.48694,0.63755 -0.34457,0.98721 0.14237,0.34965 0.0121,0.77943 -0.28937,0.95506 -0.35507,0.20681 -0.40756,0.1048 -0.14896,-0.28953 0.27214,-0.41499 0.20714,-0.49694 -0.20416,-0.25738 -0.33188,0.19331 -0.48694,0.63755 -0.34457,0.98721 0.14237,0.34966 0.0121,0.77943 -0.28937,0.95506 -0.35507,0.20681 -0.40756,0.10479 -0.14896,-0.28953 0.27214,-0.41499 0.20714,-0.49694 -0.20416,-0.25738 -0.33189,0.19331 -0.48694,0.63755 -0.34457,0.98721 0.14237,0.34965 0.0121,0.77943 -0.28938,0.95505 -0.35507,0.20682 -0.40755,0.10481 -0.14895,-0.28952 0.27214,-0.41499 0.20714,-0.49694 -0.20416,-0.25738 -0.33189,0.19331 -0.48695,0.63755 -0.34458,0.98721 0.14238,0.34965 0.0121,0.77943 -0.28937,0.95505 -0.35507,0.20682 -0.40755,0.1048 -0.14896,-0.28952 0.27215,-0.41499 0.20714,-0.49694 -0.20416,-0.25738 -0.33188,0.1933 -0.48694,0.63755 -0.34457,0.98721 0.14237,0.34965 0.0121,0.77943 -0.28937,0.95505 -0.35521,0.20695 -0.40769,0.10493 -0.14909,-0.2894 0.27214,-0.41498 0.20713,-0.49693 -0.20416,-0.25737 -0.33189,0.19331 -0.48695,0.63755 -0.34457,0.98721 0.14237,0.34965 0.0122,0.77943 -0.28938,0.95505 -0.35507,0.20682 -0.40755,0.1048 -0.14896,-0.28953 0.27215,-0.41499 0.20714,-0.49693 -0.20415,-0.25737 -0.33189,0.1933 -0.48524,0.64174 -0.34078,0.99652 0.14446,0.35478 -0.007,0.59524 -0.33651,0.53435 -0.32953,-0.0609 -0.56975,0.24738 -0.53383,0.68502 0.0359,0.43765 -0.18616,0.75161 -0.49353,0.69768 -0.30737,-0.0539 -0.52946,0.26004 -0.49353,0.69768 0.0359,0.43765 -0.18616,0.75161 -0.49353,0.69768 -0.30737,-0.0539 -0.52946,0.26004 -0.49353,0.69768 0.0359,0.43765 -0.18616,0.75161 -0.49353,0.69768 -0.30737,-0.0539 -0.52946,0.26003 -0.49353,0.69768 0.0359,0.43765 -0.18617,0.75161 -0.49354,0.69768 -0.30736,-0.0539 -0.52945,0.26003 -0.49352,0.69768 0.0359,0.43765 -0.18617,0.7516 -0.49354,0.69768 -0.30736,-0.0539 -0.52945,0.26003 -0.49353,0.69768 0.0359,0.43765 -0.18616,0.7516 -0.49353,0.69768 -0.30737,-0.0539 -0.52946,0.26003 -0.49353,0.69768 0.0359,0.43765 -0.18616,0.7516 -0.49353,0.69768 -0.30737,-0.0539 -0.52946,0.26003 -0.49353,0.69768 0.0359,0.43765 -0.18616,0.7516 -0.49353,0.69768 -0.30737,-0.0539 -0.52946,0.26003 -0.49353,0.69768 0.0359,0.43765 -0.18617,0.7516 -0.49354,0.69768 -0.30736,-0.0539 -0.52945,0.26003 -0.49353,0.69768 0.0359,0.43764 -0.18616,0.7516 -0.49353,0.69768 -0.30736,-0.0539 -0.52945,0.26003 -0.49353,0.69768 0.0359,0.43765 -0.18616,0.7516 -0.49353,0.69767 -0.30737,-0.0539 -0.52946,0.26004 -0.49353,0.69768 0.0359,0.43765 -0.18616,0.75161 -0.49353,0.69768 -0.30737,-0.0539 -0.52946,0.26004 -0.49353,0.69768 0.0359,0.43765 -0.18617,0.75161 -0.49353,0.69768 -0.30737,-0.0539 -0.52946,0.26004 -0.49354,0.69768 0.0359,0.43765 -0.18616,0.75161 -0.49352,0.69768 -0.30737,-0.0539 -0.52841,0.266 -0.4912,0.71092 0.0385,0.46005 -0.15734,0.6779 -0.45401,0.5051 -0.32307,-0.18817 -0.40401,-0.0148 -0.2126,0.45523 0.16999,0.41749 0.0624,0.90278 -0.23915,1.0784 -0.35507,0.20682 -0.40755,0.1048 -0.14896,-0.28953 0.27214,-0.41499 0.20714,-0.49694 -0.20416,-0.25738 -0.33188,0.19331 -0.48694,0.63756 -0.34457,0.98722 0.14237,0.34965 0.0122,0.77943 -0.28937,0.95505 -0.355074,0.20682 -0.407556,0.1048 -0.14896,-0.28953 0.27214,-0.41499 0.20714,-0.49694 -0.204156,-0.25738 -0.331889,0.19331 -0.486947,0.63756 -0.344575,0.98722 0.142371,0.34965 0.01216,0.77943 -0.289375,0.95505 -0.355069,0.20681 -0.407553,0.1048 -0.148957,-0.28953 0.272145,-0.41499 0.20714,-0.49694 -0.204156,-0.25738 -0.331887,0.19331 -0.501646,0.60145 -0.377245,0.90698 0.124404,0.30553 -0.183252,0.58457 -0.683677,0.6201 -0.536259,0.038 -1.054901,-0.35259 -1.263084,-0.9514 z"
       id="path2162"
       inkscape:connector-curvature="0" />
  </g>
</svg>
